<svg version="1.1" id="Layer_1" xmlns="http://www.w3.org/2000/svg" xmlns:xlink="http://www.w3.org/1999/xlink" x="0px" y="0px"
	 width="100%" viewBox="0 0 500 500" enable-background="new 0 0 500 500" xml:space="preserve">
<path fill="#FFFFFF" opacity="1.000000" stroke="none" 
	d="
M286.000000,501.000000 
	C190.666687,501.000000 95.833382,501.000000 1.000051,501.000000 
	C1.000034,334.333405 1.000034,167.666794 1.000017,1.000140 
	C167.666565,1.000094 334.333130,1.000094 500.999756,1.000047 
	C500.999847,167.666519 500.999847,334.333038 500.999939,500.999786 
	C429.500000,501.000000 358.000000,501.000000 286.000000,501.000000 
M156.985321,74.440193 
	C155.247330,75.419586 153.502930,76.387787 151.772278,77.379974 
	C51.684765,134.760117 20.514557,264.095581 83.870354,360.511505 
	C116.460732,410.108093 162.877899,439.254974 221.121933,448.750610 
	C263.955597,455.733887 305.278961,448.867676 343.427643,428.046967 
	C411.180481,391.068939 446.949951,333.255829 450.745422,256.331146 
	C452.617126,218.396835 443.188385,182.569565 423.417114,150.092117 
	C385.560028,87.905785 329.808197,54.798428 257.124451,51.233131 
	C222.035324,49.511940 188.787689,57.686302 156.985321,74.440193 
z"/>
<path fill="#090505" opacity="1.000000" stroke="none" 
	d="
M157.316422,74.267700 
	C188.787689,57.686302 222.035324,49.511940 257.124451,51.233131 
	C329.808197,54.798428 385.560028,87.905785 423.417114,150.092117 
	C443.188385,182.569565 452.617126,218.396835 450.745422,256.331146 
	C446.949951,333.255829 411.180481,391.068939 343.427643,428.046967 
	C305.278961,448.867676 263.955597,455.733887 221.121933,448.750610 
	C162.877899,439.254974 116.460732,410.108093 83.870354,360.511505 
	C20.514557,264.095581 51.684765,134.760117 151.772278,77.379974 
	C153.502930,76.387787 155.247330,75.419586 157.316422,74.267700 
M126.509796,116.004539 
	C93.937111,146.550690 74.573982,183.810318 68.595741,228.172897 
	C86.292236,230.854187 93.925621,237.817642 94.165283,250.857864 
	C94.396355,263.430817 86.881241,270.351044 69.212738,273.835144 
	C72.663849,317.622894 100.347977,377.795563 160.118195,410.376923 
	C225.202072,445.854828 290.328888,443.657837 352.561340,403.660889 
	C399.416901,373.546753 425.273743,328.963257 433.487274,273.857056 
	C416.288910,271.188904 408.162506,264.630859 408.059387,252.693695 
	C408.018616,247.974197 409.345093,242.711884 411.669281,238.616241 
	C416.159058,230.704605 424.271271,228.455124 432.954468,228.513611 
	C427.233154,174.330750 392.619446,110.839546 323.230957,82.411301 
	C251.872253,53.175835 185.766830,64.988342 126.509796,116.004539 
M439.884430,244.830414 
	C435.108215,239.100220 429.914612,237.773132 424.249969,240.835510 
	C419.570099,243.365509 417.156342,248.898193 418.560394,253.876740 
	C420.466125,260.633942 427.124695,264.097046 433.697937,262.058411 
	C439.442535,260.276794 444.375519,252.209534 439.884430,244.830414 
M71.613846,262.780487 
	C72.916306,262.541504 74.262970,262.440674 75.513832,262.040436 
	C82.097672,259.933838 85.353638,253.316238 82.997345,246.967896 
	C80.599495,240.507614 73.301888,237.534882 67.000114,240.451309 
	C62.714146,242.434830 59.874897,247.181747 60.238335,251.756317 
	C60.675755,257.262177 64.104065,260.801331 71.613846,262.780487 
z"/>
<path fill="#F1ECE1" opacity="1.000000" stroke="none" 
	d="
M126.768951,115.761948 
	C185.766830,64.988342 251.872253,53.175835 323.230957,82.411301 
	C392.619446,110.839546 427.233154,174.330750 432.954468,228.513611 
	C424.271271,228.455124 416.159058,230.704605 411.669281,238.616241 
	C409.345093,242.711884 408.018616,247.974197 408.059387,252.693695 
	C408.162506,264.630859 416.288910,271.188904 433.487274,273.857056 
	C425.273743,328.963257 399.416901,373.546753 352.561340,403.660889 
	C290.328888,443.657837 225.202072,445.854828 160.118195,410.376923 
	C100.347977,377.795563 72.663849,317.622894 69.212738,273.835144 
	C86.881241,270.351044 94.396355,263.430817 94.165283,250.857864 
	C93.925621,237.817642 86.292236,230.854187 68.595741,228.172897 
	C74.573982,183.810318 93.937111,146.550690 126.768951,115.761948 
M142.444351,114.728088 
	C142.183563,115.046593 141.922760,115.365105 141.031876,115.912262 
	C108.471001,143.351883 87.571571,177.625183 79.604919,219.728699 
	C95.001358,225.174103 103.831978,235.568939 103.737114,251.499069 
	C103.644081,267.122131 94.405663,276.859924 80.136490,282.051880 
	C90.839371,354.982025 158.435699,425.568634 251.759811,424.901550 
	C350.471527,424.196014 412.588928,347.984192 421.778412,282.026123 
	C407.919342,277.231628 399.112885,267.863037 398.248505,252.958206 
	C397.257812,235.875824 406.791718,225.457153 422.022156,219.752289 
	C417.875610,186.055054 388.186371,134.173828 364.801758,120.357353 
	C359.456421,133.836853 354.177734,147.212555 348.810822,160.552750 
	C348.407013,161.556488 347.037628,163.178268 346.684540,163.042023 
	C342.645813,161.483841 338.717255,159.640076 335.451874,158.181763 
	C339.127686,149.757080 342.484039,142.064606 345.840393,134.372131 
	C345.438568,134.147873 345.036743,133.923615 344.634888,133.699341 
	C340.486786,138.412674 336.417145,143.199219 332.136475,147.788940 
	C331.038025,148.966751 329.273712,149.523590 327.815308,150.365692 
	C327.401093,148.715210 326.557526,147.040649 326.648438,145.418472 
	C327.004822,139.059494 327.656006,132.717010 328.197693,126.368408 
	C327.746002,126.252434 327.294281,126.136459 326.842590,126.020485 
	C323.587280,134.005951 320.331970,141.991409 316.854126,150.522842 
	C313.479004,149.037369 309.722015,147.383820 306.820190,146.106644 
	C313.429932,130.374054 319.748444,115.334702 326.237976,99.888237 
	C328.838074,101.099373 331.691925,103.197464 334.807159,103.711456 
	C340.398804,104.634056 340.600922,107.901886 339.982971,112.279205 
	C339.306335,117.071823 338.933472,121.907318 338.428253,126.724129 
	C338.846954,126.844780 339.265686,126.965431 339.684387,127.086082 
	C344.520905,121.693474 349.357391,116.300865 354.263214,110.830978 
	C354.146118,110.729980 353.686523,110.242432 353.144012,109.878555 
	C291.587128,68.589287 228.137070,65.601868 162.908234,100.654106 
	C158.043900,103.268074 153.682007,106.817070 148.434509,110.012085 
	C147.613785,110.655380 146.793076,111.298676 145.353607,112.025673 
	C144.586334,112.867706 143.819061,113.709732 142.444351,114.728088 
z"/>
<path fill="#F0EADF" opacity="1.000000" stroke="none" 
	d="
M440.037720,245.181000 
	C444.375519,252.209534 439.442535,260.276794 433.697937,262.058411 
	C427.124695,264.097046 420.466125,260.633942 418.560394,253.876740 
	C417.156342,248.898193 419.570099,243.365509 424.249969,240.835510 
	C429.914612,237.773132 435.108215,239.100220 440.037720,245.181000 
z"/>
<path fill="#F0EAE0" opacity="1.000000" stroke="none" 
	d="
M71.228012,262.741730 
	C64.104065,260.801331 60.675755,257.262177 60.238335,251.756317 
	C59.874897,247.181747 62.714146,242.434830 67.000114,240.451309 
	C73.301888,237.534882 80.599495,240.507614 82.997345,246.967896 
	C85.353638,253.316238 82.097672,259.933838 75.513832,262.040436 
	C74.262970,262.440674 72.916306,262.541504 71.228012,262.741730 
z"/>
<path fill="#080404" opacity="1.000000" stroke="none" 
	d="
M149.086548,109.931389 
	C153.682007,106.817070 158.043900,103.268074 162.908234,100.654106 
	C228.137070,65.601868 291.587128,68.589287 353.144012,109.878555 
	C353.686523,110.242432 354.146118,110.729980 354.263214,110.830978 
	C349.357391,116.300865 344.520905,121.693474 339.684387,127.086082 
	C339.265686,126.965431 338.846954,126.844780 338.428253,126.724129 
	C338.933472,121.907318 339.306335,117.071823 339.982971,112.279205 
	C340.600922,107.901886 340.398804,104.634056 334.807159,103.711456 
	C331.691925,103.197464 328.838074,101.099373 326.237976,99.888237 
	C319.748444,115.334702 313.429932,130.374054 306.820190,146.106644 
	C309.722015,147.383820 313.479004,149.037369 316.854126,150.522842 
	C320.331970,141.991409 323.587280,134.005951 326.842590,126.020485 
	C327.294281,126.136459 327.746002,126.252434 328.197693,126.368408 
	C327.656006,132.717010 327.004822,139.059494 326.648438,145.418472 
	C326.557526,147.040649 327.401093,148.715210 327.815308,150.365692 
	C329.273712,149.523590 331.038025,148.966751 332.136475,147.788940 
	C336.417145,143.199219 340.486786,138.412674 344.634888,133.699341 
	C345.036743,133.923615 345.438568,134.147873 345.840393,134.372131 
	C342.484039,142.064606 339.127686,149.757080 335.451874,158.181763 
	C338.717255,159.640076 342.645813,161.483841 346.684540,163.042023 
	C347.037628,163.178268 348.407013,161.556488 348.810822,160.552750 
	C354.177734,147.212555 359.456421,133.836853 364.801758,120.357353 
	C388.186371,134.173828 417.875610,186.055054 422.022156,219.752289 
	C406.791718,225.457153 397.257812,235.875824 398.248505,252.958206 
	C399.112885,267.863037 407.919342,277.231628 421.778412,282.026123 
	C412.588928,347.984192 350.471527,424.196014 251.759811,424.901550 
	C158.435699,425.568634 90.839371,354.982025 80.136490,282.051880 
	C94.405663,276.859924 103.644081,267.122131 103.737114,251.499069 
	C103.831978,235.568939 95.001358,225.174103 79.604919,219.728699 
	C87.571571,177.625183 108.471001,143.351883 141.482147,115.922989 
	C141.932404,115.933723 142.203537,116.183075 142.140350,116.560257 
	C141.354828,120.294525 139.744583,123.741676 140.074326,126.992027 
	C141.122421,137.323563 145.048599,146.729462 152.485535,154.091461 
	C155.002136,156.582703 158.946045,158.509888 162.457092,158.951874 
	C172.429260,160.207245 180.462677,152.616821 179.916031,142.543167 
	C179.318222,131.527161 174.546112,122.059837 167.129379,114.001900 
	C162.134323,108.575005 155.639038,108.830315 149.045746,109.930252 
	C149.032349,109.957008 149.086548,109.931389 149.086548,109.931389 
M152.080551,284.806580 
	C152.120102,285.134521 152.092590,285.488617 152.208740,285.786713 
	C167.614685,325.329620 196.160828,349.452484 238.265961,354.542572 
	C280.317444,359.626160 313.995514,343.424011 338.314514,308.479584 
	C339.209076,307.194183 339.577698,305.542725 340.712128,303.582581 
	C341.687012,302.887146 342.604156,302.086853 343.645905,301.512756 
	C352.223297,296.785797 361.647888,292.943115 364.048767,282.531921 
	C364.695312,286.066803 366.464325,289.861694 365.720215,293.074493 
	C364.655457,297.671539 365.930542,299.110352 370.067780,299.543793 
	C371.193756,299.661774 372.336212,300.671173 373.353699,300.513550 
	C374.653076,300.312256 376.109680,299.592621 376.982300,298.628906 
	C377.754272,297.776428 377.818878,296.283417 378.372040,294.507233 
	C389.438599,297.772400 400.144897,300.931305 411.541443,304.293854 
	C412.725220,300.503418 414.221039,296.033936 415.395203,291.481476 
	C415.518646,291.002869 413.855621,289.635071 412.836426,289.356415 
	C402.513306,286.533813 392.151703,283.852112 382.696442,281.151459 
	C384.973450,281.024475 387.250488,280.897491 390.327026,280.725922 
	C386.977356,274.534973 383.801056,268.943146 380.883911,263.219238 
	C372.958649,247.668777 372.943024,254.327225 380.945007,238.670853 
	C383.861694,232.964233 387.011078,227.376587 390.511871,220.886292 
	C376.651520,220.886292 363.856659,220.886292 351.020111,220.138062 
	C342.533539,193.200760 326.027100,172.589172 301.258820,159.158463 
	C262.790253,138.298691 216.964264,143.042206 183.232498,171.123703 
	C167.401001,184.303360 156.471939,200.926102 149.959274,220.933640 
	C138.576508,220.933640 127.193748,220.933640 115.018715,220.933640 
	C120.102905,230.397766 124.885689,238.921677 129.215378,247.669830 
	C130.117264,249.492126 130.092789,252.501312 129.211273,254.351929 
	C125.361786,262.433319 121.039207,270.289368 116.464996,278.706573 
	C109.405128,282.753967 102.220772,286.601624 95.319046,290.902802 
	C87.833733,295.567657 87.956230,295.749329 90.586487,303.905945 
	C90.994484,305.171143 91.533920,306.459015 91.599571,307.757263 
	C91.789299,311.509094 93.869972,312.554749 97.239746,312.165619 
	C110.608978,310.621918 123.980721,309.099823 137.353363,307.585999 
	C139.497269,307.343262 141.650528,307.183441 143.799469,306.985291 
	C143.984985,307.528137 144.170517,308.070984 144.356033,308.613831 
	C131.058472,317.734833 117.760910,326.855835 104.061356,336.252563 
	C104.093452,335.810364 103.923645,336.234802 104.067314,336.446899 
	C109.378685,344.287598 114.678841,352.136932 120.125519,359.883087 
	C120.605003,360.565002 122.351433,361.113708 123.028427,360.771851 
	C126.502647,359.017578 129.819382,356.951355 133.285233,354.939575 
	C129.325287,350.064301 125.734268,345.643250 121.832085,340.839081 
	C124.757401,338.872711 126.868149,337.453888 129.164291,335.910461 
	C130.627960,337.915405 131.735153,339.358215 132.762253,340.855896 
	C134.396164,343.238373 135.777679,347.403534 137.630692,347.614716 
	C139.895203,347.872803 142.462067,344.695557 145.033737,343.244080 
	C148.087631,341.520538 147.445404,339.975159 145.409195,337.836639 
	C143.029221,335.337158 140.987823,332.515289 138.516846,329.486786 
	C141.048004,327.662048 143.141418,326.152893 146.010834,324.084320 
	C148.275146,328.337891 150.293472,332.068542 152.250473,335.831055 
	C153.242096,337.737518 154.200348,339.647125 156.646927,337.536957 
	C159.140442,335.386353 161.547623,333.135651 164.194183,330.746765 
	C155.517151,318.355743 145.479614,307.057922 141.608902,292.386658 
	C130.497498,297.276001 119.522240,298.892639 108.487869,300.220856 
	C108.302757,299.618378 108.117645,299.015869 107.932533,298.413391 
	C118.302895,293.876495 128.673264,289.339600 139.408386,284.643158 
	C139.011917,283.276581 138.421844,281.242615 138.197159,278.675110 
	C142.834534,280.468018 147.471893,282.260925 152.080551,284.806580 
M309.904938,353.447845 
	C308.363892,354.183868 306.822845,354.919891 305.714935,355.449036 
	C309.542572,363.490387 313.085541,370.933594 316.628479,378.376801 
	C316.191986,378.656189 315.755493,378.935547 315.319000,379.214935 
	C309.374817,373.944733 303.463531,368.636475 297.458679,363.436340 
	C296.253998,362.393066 294.338837,360.764160 293.357605,361.112640 
	C289.140137,362.610443 285.148834,364.745056 281.967407,366.230927 
	C289.419983,382.589539 296.512512,398.157806 303.678741,413.887817 
	C306.514252,412.682587 309.773193,411.498291 312.791565,409.868378 
	C313.515045,409.477692 314.041382,407.317627 313.632751,406.460022 
	C310.726135,400.359894 307.522125,394.402161 304.501282,388.354919 
	C304.087250,387.526093 304.162811,386.452728 303.839447,384.397827 
	C310.705597,390.464569 316.624268,395.799500 322.686646,400.965790 
	C323.966705,402.056641 326.108948,403.509399 327.275818,403.109314 
	C331.230316,401.753418 334.925476,399.641052 338.058655,398.135406 
	C333.529236,388.280029 329.209351,379.008087 325.005463,369.683868 
	C322.623596,364.401001 319.932556,359.176483 318.337982,353.649506 
	C317.346008,350.211182 316.395020,349.905884 313.738678,351.544434 
	C312.755066,352.151184 311.680481,352.610474 309.904938,353.447845 
M180.067795,371.723358 
	C188.247879,363.622223 190.634155,356.093140 185.181625,349.882019 
	C179.518997,343.431610 172.266022,338.377350 166.229919,333.162933 
	C155.031403,347.520050 144.474411,361.054688 133.744995,374.810394 
	C136.590042,377.157440 139.790955,379.997559 143.265350,382.450287 
	C143.789352,382.820251 145.999451,381.692841 146.726379,380.728119 
	C149.662079,376.832092 152.322433,372.728577 155.084457,368.701691 
	C158.173859,376.526855 155.483200,382.546173 150.691483,388.118866 
	C154.051788,390.789429 157.219940,393.162842 160.217911,395.734711 
	C162.699799,397.863800 164.062286,397.809204 165.009140,394.338898 
	C166.779953,387.848785 168.844376,381.438782 170.670074,375.382202 
	C173.431442,374.354004 176.433365,373.236206 180.067795,371.723358 
M247.619354,391.477539 
	C247.991196,399.163116 248.703064,406.775543 252.898682,413.536743 
	C256.755096,419.751312 262.471588,421.932159 269.553436,421.096405 
	C276.205017,420.311432 280.860718,416.567780 282.707275,410.410767 
	C286.292236,398.457428 285.180908,386.537262 279.240417,375.600769 
	C273.655548,365.318939 260.694458,364.303467 252.593613,372.757416 
	C247.716507,377.847137 247.761032,384.168701 247.619354,391.477539 
M369.519379,331.970703 
	C365.124298,329.008942 360.966980,325.578430 356.276367,323.199432 
	C349.856659,319.943512 343.924530,321.600494 339.257629,326.983429 
	C334.107422,332.923798 333.413727,338.360779 337.814545,344.677124 
	C344.395844,354.123077 353.082764,361.358398 363.411041,366.382233 
	C370.295471,369.730896 375.409210,368.177521 380.637817,362.077911 
	C385.342926,356.588959 386.020752,350.697327 381.609100,344.775116 
	C378.263794,340.284393 373.947754,336.516754 369.519379,331.970703 
M182.006882,406.134613 
	C183.254944,406.960480 184.469650,407.842804 185.756439,408.603119 
	C194.877930,413.992676 203.402893,413.095093 208.590256,406.227539 
	C215.214935,397.457062 214.482758,387.633820 206.661545,380.321716 
	C205.325317,379.072479 203.687042,378.003662 202.770325,376.497314 
	C202.131012,375.446777 201.928970,373.399750 202.551331,372.515991 
	C203.180710,371.622284 205.095871,371.227753 206.392334,371.328430 
	C207.603516,371.422485 208.787262,372.381714 209.903061,373.086761 
	C212.284332,374.591431 214.613754,376.178192 216.964447,377.731293 
	C217.946625,374.962250 218.935242,372.195465 219.906830,369.422729 
	C220.181183,368.639709 220.584778,367.842896 220.600784,367.045807 
	C220.615570,366.310699 220.365936,365.052979 219.931503,364.903992 
	C213.797348,362.800690 208.559875,357.736816 201.364975,359.105927 
	C194.340607,360.442627 190.723938,365.428558 188.316132,371.572510 
	C185.988739,377.511261 186.620163,383.010010 191.274490,387.683258 
	C193.034439,389.450348 195.203445,390.876617 196.672836,392.841949 
	C197.585297,394.062378 197.534485,396.002991 197.916016,397.620361 
	C196.159225,397.909241 193.951096,399.002991 192.737793,398.322632 
	C190.056152,396.818909 188.008835,394.224548 185.428604,392.480774 
	C184.283035,391.706573 181.225800,391.508362 181.151321,391.737213 
	C179.872437,395.665955 178.791016,399.678772 178.069489,403.744690 
	C177.976990,404.265991 180.134262,405.186493 182.006882,406.134613 
M218.969193,117.278091 
	C218.148956,113.066452 217.720322,108.727615 216.404663,104.676880 
	C214.918884,100.102455 211.837280,96.378838 206.963364,95.116951 
	C197.556747,92.681503 189.497513,98.271439 179.988007,98.981995 
	C181.142593,101.389442 182.055710,102.641022 182.358627,104.026054 
	C185.333664,117.628784 188.181778,131.259262 191.158508,144.861618 
	C191.392532,145.931061 192.507874,147.773193 192.899307,147.694427 
	C197.172241,146.834442 201.382523,145.663055 205.491074,144.606934 
	C204.253189,140.558594 203.216583,137.168564 202.176682,133.767670 
	C214.585083,130.357315 217.293350,127.763596 218.969193,117.278091 
M253.282440,92.765015 
	C244.616821,103.801376 247.314957,115.440048 259.846375,121.083061 
	C260.451538,121.355583 261.268463,121.478844 261.614502,121.946854 
	C262.736542,123.464279 263.685089,125.109985 264.700439,126.706284 
	C262.830902,127.249252 260.837524,128.481049 259.121155,128.172348 
	C256.601501,127.719185 254.228714,126.263931 251.886963,125.054375 
	C248.968094,123.546684 247.633026,123.917961 247.726395,127.589333 
	C248.016251,138.989365 247.943954,138.991211 259.433655,140.135025 
	C270.131989,141.200043 276.555145,136.761002 277.893829,127.377228 
	C279.264160,117.771614 276.049835,111.896461 267.187500,107.803757 
	C265.983765,107.247864 264.513000,106.944763 263.653503,106.054062 
	C262.653015,105.017227 261.372467,103.176857 261.710938,102.208755 
	C262.087036,101.133080 264.260345,99.890160 265.458679,100.062080 
	C268.006439,100.427605 270.377045,101.950050 272.926636,102.414978 
	C274.131531,102.634697 276.724182,101.534569 276.735168,100.992767 
	C276.808136,97.403503 276.351013,93.803459 276.070404,90.256920 
	C268.304138,89.772034 260.632050,86.285858 253.282440,92.765015 
M235.018631,367.752991 
	C232.494110,367.260834 229.969589,366.768677 226.844833,366.159485 
	C226.844833,369.476257 227.133087,372.107300 226.794662,374.655121 
	C225.371429,385.369659 223.783310,396.062622 222.207047,406.756348 
	C221.640213,410.601807 220.936874,414.427094 220.295822,418.261597 
	C224.358597,418.928772 228.421463,419.595398 232.483826,420.265015 
	C232.647369,420.291962 232.875305,420.437836 232.956741,420.375641 
	C233.994171,419.584045 235.791321,418.863373 235.908768,417.936340 
	C236.887177,410.213043 237.282318,402.411133 238.391968,394.710510 
	C239.545609,386.704620 241.365799,378.796173 242.686768,370.810760 
	C242.817719,370.019165 241.671219,368.454529 240.820984,368.185211 
	C239.288834,367.699860 237.532074,367.923676 235.018631,367.752991 
M303.137604,120.690102 
	C304.977783,112.675529 306.817993,104.660950 308.780701,96.112717 
	C304.215515,95.141968 299.353333,94.108055 294.993164,93.180901 
	C291.509094,109.589355 288.124603,125.528999 284.609589,142.083176 
	C288.794464,143.007782 293.664368,144.083740 298.559723,145.165329 
	C299.278839,140.925354 299.875397,137.060852 300.601990,133.220993 
	C301.341858,129.311096 302.209747,125.425438 303.137604,120.690102 
M391.523529,334.044922 
	C397.181335,334.971741 400.659912,332.953735 401.717560,328.131042 
	C402.660645,323.830872 398.743439,319.266418 393.237122,318.249298 
	C389.083923,317.482147 385.302216,320.017731 384.452881,324.409546 
	C383.458069,329.553436 386.923401,331.881805 391.523529,334.044922 
z"/>
<path fill="#F0EADF" opacity="1.000000" stroke="none" 
	d="
M143.051788,114.551758 
	C143.819061,113.709732 144.586334,112.867706 145.701752,112.035912 
	C146.049881,112.046150 146.134079,112.144997 146.056442,112.449326 
	C145.076233,113.472610 144.173676,114.191566 143.125732,114.876183 
	C142.980362,114.841835 143.051788,114.551758 143.051788,114.551758 
z"/>
<path fill="#F0EADF" opacity="1.000000" stroke="none" 
	d="
M146.011108,111.994064 
	C146.793076,111.298676 147.613785,110.655380 148.760529,109.971741 
	C149.086548,109.931389 149.032349,109.957008 148.985794,110.275490 
	C148.004181,111.110977 147.069122,111.627983 146.134079,112.144989 
	C146.134079,112.144997 146.049881,112.046150 146.011108,111.994064 
z"/>
<path fill="#080404" opacity="1.000000" stroke="none" 
	d="
M141.797180,115.808670 
	C141.922760,115.365105 142.183563,115.046593 142.748077,114.639923 
	C143.051788,114.551758 142.980362,114.841835 143.050934,115.168350 
	C142.815506,115.724266 142.509521,115.953674 142.203537,116.183075 
	C142.203537,116.183075 141.932404,115.933723 141.797180,115.808670 
z"/>
<path fill="#8F021A" opacity="1.000000" stroke="none" 
	d="
M351.061798,220.886292 
	C363.856659,220.886292 376.651520,220.886292 390.511871,220.886292 
	C387.011078,227.376587 383.861694,232.964233 380.945007,238.670853 
	C372.943024,254.327225 372.958649,247.668777 380.883911,263.219238 
	C383.801056,268.943146 386.977356,274.534973 390.327026,280.725922 
	C387.250488,280.897491 384.973450,281.024475 381.860291,281.160400 
	C376.694489,279.992706 372.403076,278.623718 368.013123,277.749756 
	C366.587311,277.465912 364.903687,278.476898 363.094788,278.584961 
	C358.633423,273.316284 354.871521,267.809570 347.832886,265.688812 
	C345.082336,264.573212 342.556458,263.742462 339.783691,262.618896 
	C329.884888,261.220337 320.232910,260.114624 309.883514,258.928986 
	C309.883514,256.583649 309.883514,253.798508 309.923340,250.596619 
	C308.616882,245.120102 307.270599,240.060318 305.956757,234.998108 
	C305.989166,234.995697 305.963318,235.055344 305.961243,234.787338 
	C305.767059,234.035172 305.574921,233.551010 305.239288,232.998474 
	C305.095825,232.930115 304.973572,232.636703 304.902832,232.592834 
	C304.832062,232.548965 304.632507,232.298660 304.385254,231.995697 
	C302.789703,229.108749 301.441467,226.524734 300.098297,223.517975 
	C301.441986,222.397614 302.771271,221.115341 304.120728,221.093674 
	C316.424652,220.896255 328.732086,220.918320 341.488220,220.929779 
	C344.979187,220.950943 348.020508,220.918625 351.061798,220.886292 
z"/>
<path fill="#8F021A" opacity="1.000000" stroke="none" 
	d="
M116.888367,278.227234 
	C121.039207,270.289368 125.361786,262.433319 129.211273,254.351929 
	C130.092789,252.501312 130.117264,249.492126 129.215378,247.669830 
	C124.885689,238.921677 120.102905,230.397766 115.018715,220.933640 
	C127.193748,220.933640 138.576508,220.933640 150.880310,220.966705 
	C154.840546,220.957230 157.879761,220.914688 161.389191,220.921509 
	C174.227325,220.981339 186.595551,220.950943 198.962753,221.050079 
	C200.651505,221.063629 202.335068,221.723511 204.010773,222.052673 
	C204.000519,222.021194 204.066589,222.017715 203.762146,222.126862 
	C203.310028,222.837967 203.162338,223.439926 203.006989,224.019257 
	C202.999313,223.996597 203.045135,224.010330 202.679306,223.996246 
	C201.887375,225.003250 201.461288,226.024353 201.018036,227.022766 
	C201.000870,227.000076 201.053024,227.022873 200.762604,227.034210 
	C200.327118,227.386459 200.182083,227.727341 200.022095,228.037476 
	C200.007126,228.006744 200.074295,228.019455 199.778778,228.144135 
	C199.339432,228.865295 199.195572,229.461761 199.028534,230.032074 
	C199.005341,230.005890 199.074615,230.015472 198.759827,230.175781 
	C198.303452,231.237595 198.161880,232.139114 198.009354,233.018646 
	C197.998413,232.996674 198.047226,233.001816 197.721191,233.080429 
	C197.276154,233.788223 197.157150,234.417389 197.020081,235.023163 
	C197.002014,234.999741 197.058777,235.016342 196.698730,235.100220 
	C194.062454,243.545120 191.786240,251.906128 189.369995,260.781494 
	C188.687210,260.948517 186.954498,261.372406 184.781067,261.878265 
	C180.937531,262.323059 177.534683,262.685852 173.676163,262.969666 
	C162.730774,264.685699 152.226837,266.404907 141.768677,268.368103 
	C140.401794,268.624725 139.270126,270.134308 138.014328,271.033020 
	C137.999161,271.002563 138.048141,271.049683 137.632935,270.965546 
	C136.668655,271.003082 136.119598,271.124756 135.313812,271.022156 
	C134.069855,270.763153 132.918243,270.377655 132.122086,270.750702 
	C127.000824,273.150360 121.957367,275.716064 116.888367,278.227234 
z"/>
<path fill="#CDA057" opacity="1.000000" stroke="none" 
	d="
M174.131851,263.048676 
	C177.534683,262.685852 180.937531,262.323059 185.153778,261.918579 
	C187.590836,262.511383 189.377731,262.897064 190.803650,263.832825 
	C193.641205,265.694977 196.280167,267.859772 199.366791,270.018921 
	C208.491257,272.674927 217.250107,275.211548 226.410278,277.860229 
	C230.100754,278.759125 233.363632,279.686523 236.683914,280.306732 
	C247.111084,282.254395 257.559845,284.086456 268.402649,286.076477 
	C279.908936,287.626190 290.982269,288.286804 302.311096,284.933655 
	C317.159027,282.366913 330.538177,277.096954 342.848022,269.110870 
	C344.547607,268.008270 346.319244,267.016632 348.057495,265.973633 
	C354.871521,267.809570 358.633423,273.316284 363.124512,278.824860 
	C363.549469,280.155762 363.701508,280.936096 363.853516,281.716431 
	C361.647888,292.943115 352.223297,296.785797 343.645905,301.512756 
	C342.604156,302.086853 341.687012,302.887146 340.040588,303.808167 
	C335.309998,305.019104 331.250977,306.004425 326.787781,306.827576 
	C325.615631,306.448975 324.832733,306.001373 324.081940,306.049988 
	C306.782806,307.170135 290.078308,303.689331 273.617920,299.081268 
	C259.307251,295.074982 245.201004,290.338623 230.999512,285.956665 
	C230.994629,285.988434 231.055573,285.968109 230.874130,285.670044 
	C229.797195,285.224854 228.901703,285.077789 228.005432,284.963196 
	C228.004654,284.995636 228.057785,284.958282 227.979797,284.637695 
	C227.270096,284.186371 226.638367,284.055634 226.001068,283.956665 
	C225.995468,283.988434 226.057098,283.969482 225.848785,283.677734 
	C216.793655,280.642822 207.946869,277.899597 198.680740,275.043823 
	C196.623077,274.800873 194.973816,274.749725 193.348343,274.525879 
	C187.406311,273.707489 181.472214,272.831543 175.272507,271.646118 
	C166.315704,268.696442 157.580597,268.398438 148.497894,271.011749 
	C144.238205,272.450897 140.277557,273.730835 136.217896,274.708740 
	C136.062744,273.778229 136.006592,273.149750 136.303131,272.504547 
	C137.119919,272.008423 137.584030,271.529053 138.048141,271.049683 
	C138.048141,271.049683 137.999161,271.002563 138.400665,271.072205 
	C144.202148,269.709412 149.566849,268.121674 155.011307,266.885101 
	C161.348373,265.445770 167.755264,264.313965 174.131851,263.048676 
z"/>
<path fill="#F1EBE0" opacity="1.000000" stroke="none" 
	d="
M135.950455,272.521301 
	C136.006592,273.149750 136.062744,273.778229 136.208588,275.045258 
	C136.809448,276.858795 137.320602,278.033722 137.831757,279.208679 
	C138.421844,281.242615 139.011917,283.276581 139.408386,284.643158 
	C128.673264,289.339600 118.302895,293.876495 107.932533,298.413391 
	C108.117645,299.015869 108.302757,299.618378 108.487869,300.220856 
	C119.522240,298.892639 130.497498,297.276001 141.608902,292.386658 
	C145.479614,307.057922 155.517151,318.355743 164.194183,330.746765 
	C161.547623,333.135651 159.140442,335.386353 156.646927,337.536957 
	C154.200348,339.647125 153.242096,337.737518 152.250473,335.831055 
	C150.293472,332.068542 148.275146,328.337891 146.010834,324.084320 
	C143.141418,326.152893 141.048004,327.662048 138.516846,329.486786 
	C140.987823,332.515289 143.029221,335.337158 145.409195,337.836639 
	C147.445404,339.975159 148.087631,341.520538 145.033737,343.244080 
	C142.462067,344.695557 139.895203,347.872803 137.630692,347.614716 
	C135.777679,347.403534 134.396164,343.238373 132.762253,340.855896 
	C131.735153,339.358215 130.627960,337.915405 129.164291,335.910461 
	C126.868149,337.453888 124.757401,338.872711 121.832085,340.839081 
	C125.734268,345.643250 129.325287,350.064301 133.285233,354.939575 
	C129.819382,356.951355 126.502647,359.017578 123.028427,360.771851 
	C122.351433,361.113708 120.605003,360.565002 120.125519,359.883087 
	C114.678841,352.136932 109.378685,344.287598 104.067314,336.446899 
	C103.923645,336.234802 104.093452,335.810364 104.061356,336.252563 
	C117.760910,326.855835 131.058472,317.734833 144.356033,308.613831 
	C144.170517,308.070984 143.984985,307.528137 143.799469,306.985291 
	C141.650528,307.183441 139.497269,307.343262 137.353363,307.585999 
	C123.980721,309.099823 110.608978,310.621918 97.239746,312.165619 
	C93.869972,312.554749 91.789299,311.509094 91.599571,307.757263 
	C91.533920,306.459015 90.994484,305.171143 90.586487,303.905945 
	C87.956230,295.749329 87.833733,295.567657 95.319046,290.902802 
	C102.220772,286.601624 109.405128,282.753967 116.676682,278.466919 
	C121.957367,275.716064 127.000824,273.150360 132.122086,270.750702 
	C132.918243,270.377655 134.069855,270.763153 135.370026,271.351685 
	C135.772125,272.110779 135.861298,272.316040 135.950455,272.521301 
z"/>
<path fill="#F0EAE0" opacity="1.000000" stroke="none" 
	d="
M160.918976,220.872131 
	C157.879761,220.914688 154.840546,220.957230 151.341125,220.945236 
	C156.471939,200.926102 167.401001,184.303360 183.232498,171.123703 
	C216.964264,143.042206 262.790253,138.298691 301.258820,159.158463 
	C326.027100,172.589172 342.533539,193.200760 351.040955,220.512177 
	C348.020508,220.918625 344.979187,220.950943 341.441406,220.574585 
	C340.284363,218.465622 339.641663,216.758194 338.960724,215.066147 
	C320.228302,168.517899 267.443970,144.377441 220.082336,161.114090 
	C190.882797,171.432602 171.103149,191.510544 160.918976,220.872131 
z"/>
<path fill="#F0EBE0" opacity="1.000000" stroke="none" 
	d="
M327.191956,306.989746 
	C331.250977,306.004425 335.309998,305.019104 339.780212,304.047791 
	C339.577698,305.542725 339.209076,307.194183 338.314514,308.479584 
	C313.995514,343.424011 280.317444,359.626160 238.265961,354.542572 
	C196.160828,349.452484 167.614685,325.329620 152.208740,285.786713 
	C152.092590,285.488617 152.120102,285.134521 152.428772,284.610077 
	C155.163315,284.951416 157.549652,285.489227 160.068298,286.361542 
	C161.753220,288.191406 163.899551,289.402374 164.772018,291.223633 
	C190.348892,344.614227 255.943649,362.746246 304.728088,329.208740 
	C313.270477,323.336212 319.756317,314.472168 327.191956,306.989746 
z"/>
<path fill="#F1EBE0" opacity="1.000000" stroke="none" 
	d="
M310.276184,353.292419 
	C311.680481,352.610474 312.755066,352.151184 313.738678,351.544434 
	C316.395020,349.905884 317.346008,350.211182 318.337982,353.649506 
	C319.932556,359.176483 322.623596,364.401001 325.005463,369.683868 
	C329.209351,379.008087 333.529236,388.280029 338.058655,398.135406 
	C334.925476,399.641052 331.230316,401.753418 327.275818,403.109314 
	C326.108948,403.509399 323.966705,402.056641 322.686646,400.965790 
	C316.624268,395.799500 310.705597,390.464569 303.839447,384.397827 
	C304.162811,386.452728 304.087250,387.526093 304.501282,388.354919 
	C307.522125,394.402161 310.726135,400.359894 313.632751,406.460022 
	C314.041382,407.317627 313.515045,409.477692 312.791565,409.868378 
	C309.773193,411.498291 306.514252,412.682587 303.678741,413.887817 
	C296.512512,398.157806 289.419983,382.589539 281.967407,366.230927 
	C285.148834,364.745056 289.140137,362.610443 293.357605,361.112640 
	C294.338837,360.764160 296.253998,362.393066 297.458679,363.436340 
	C303.463531,368.636475 309.374817,373.944733 315.319000,379.214935 
	C315.755493,378.935547 316.191986,378.656189 316.628479,378.376801 
	C313.085541,370.933594 309.542572,363.490387 305.714935,355.449036 
	C306.822845,354.919891 308.363892,354.183868 310.276184,353.292419 
z"/>
<path fill="#F2ECE1" opacity="1.000000" stroke="none" 
	d="
M179.751556,371.920898 
	C176.433365,373.236206 173.431442,374.354004 170.670074,375.382202 
	C168.844376,381.438782 166.779953,387.848785 165.009140,394.338898 
	C164.062286,397.809204 162.699799,397.863800 160.217911,395.734711 
	C157.219940,393.162842 154.051788,390.789429 150.691483,388.118866 
	C155.483200,382.546173 158.173859,376.526855 155.084457,368.701691 
	C152.322433,372.728577 149.662079,376.832092 146.726379,380.728119 
	C145.999451,381.692841 143.789352,382.820251 143.265350,382.450287 
	C139.790955,379.997559 136.590042,377.157440 133.744995,374.810394 
	C144.474411,361.054688 155.031403,347.520050 166.229919,333.162933 
	C172.266022,338.377350 179.518997,343.431610 185.181625,349.882019 
	C190.634155,356.093140 188.247879,363.622223 179.751556,371.920898 
M167.765289,352.796387 
	C166.039291,355.100464 164.313309,357.404572 162.355392,360.018280 
	C164.126114,361.148834 165.435730,362.677032 166.543030,362.542297 
	C168.601654,362.291809 171.108231,361.559357 172.359299,360.106812 
	C173.426880,358.867310 173.701904,356.016022 173.004181,354.478088 
	C172.441986,353.238861 169.903214,352.896423 167.765289,352.796387 
z"/>
<path fill="#F2ECE1" opacity="1.000000" stroke="none" 
	d="
M247.615906,390.992065 
	C247.761032,384.168701 247.716507,377.847137 252.593613,372.757416 
	C260.694458,364.303467 273.655548,365.318939 279.240417,375.600769 
	C285.180908,386.537262 286.292236,398.457428 282.707275,410.410767 
	C280.860718,416.567780 276.205017,420.311432 269.553436,421.096405 
	C262.471588,421.932159 256.755096,419.751312 252.898682,413.536743 
	C248.703064,406.775543 247.991196,399.163116 247.615906,390.992065 
M262.536041,399.833435 
	C262.834839,401.465942 262.773468,403.293488 263.524750,404.681000 
	C264.437897,406.367432 266.036011,407.682953 267.337799,409.158966 
	C268.478302,407.405518 270.654602,405.604889 270.577209,403.906982 
	C270.268402,397.130402 269.477783,390.348999 268.353699,383.655304 
	C268.072601,381.981323 265.882660,380.627838 264.570038,379.127075 
	C263.466339,380.945129 261.487549,382.735809 261.429596,384.586609 
	C261.279755,389.373688 261.977234,394.187286 262.536041,399.833435 
z"/>
<path fill="#F1EBE1" opacity="1.000000" stroke="none" 
	d="
M369.791504,332.199036 
	C373.947754,336.516754 378.263794,340.284393 381.609100,344.775116 
	C386.020752,350.697327 385.342926,356.588959 380.637817,362.077911 
	C375.409210,368.177521 370.295471,369.730896 363.411041,366.382233 
	C353.082764,361.358398 344.395844,354.123077 337.814545,344.677124 
	C333.413727,338.360779 334.107422,332.923798 339.257629,326.983429 
	C343.924530,321.600494 349.856659,319.943512 356.276367,323.199432 
	C360.966980,325.578430 365.124298,329.008942 369.791504,332.199036 
M360.194550,349.328217 
	C362.320282,350.906403 364.321686,352.711578 366.621796,353.971375 
	C367.855835,354.647247 369.603394,354.385529 371.119202,354.546906 
	C370.742004,352.966553 370.892212,350.810547 369.899994,349.901459 
	C364.411652,344.872681 358.718048,340.056396 352.904846,335.404602 
	C351.887512,334.590454 349.967041,334.904999 348.463684,334.698242 
	C348.757721,336.304565 348.505890,338.423859 349.445374,339.423706 
	C352.612274,342.794067 356.202576,345.766602 360.194550,349.328217 
z"/>
<path fill="#F1ECE1" opacity="1.000000" stroke="none" 
	d="
M142.140350,116.560265 
	C142.509521,115.953674 142.815506,115.724266 143.196289,115.202698 
	C144.173676,114.191566 145.076233,113.472610 146.056442,112.449318 
	C147.069122,111.627983 148.004181,111.110977 148.999191,110.248734 
	C155.639038,108.830315 162.134323,108.575005 167.129379,114.001900 
	C174.546112,122.059837 179.318222,131.527161 179.916031,142.543167 
	C180.462677,152.616821 172.429260,160.207245 162.457092,158.951874 
	C158.946045,158.509888 155.002136,156.582703 152.485535,154.091461 
	C145.048599,146.729462 141.122421,137.323563 140.074326,126.992027 
	C139.744583,123.741676 141.354828,120.294525 142.140350,116.560265 
M156.385864,136.045868 
	C157.847748,138.830002 159.009506,141.842651 160.887970,144.309586 
	C161.955460,145.711502 164.195587,146.220520 165.907623,147.131638 
	C166.305954,145.370895 167.514175,143.287796 166.963669,141.904724 
	C164.462845,135.621750 161.644211,129.442795 158.504272,123.454865 
	C157.845642,122.198868 155.348236,121.907089 153.698135,121.170990 
	C153.320602,122.803009 152.338547,124.580597 152.689316,126.037247 
	C153.457840,129.228745 154.901978,132.257538 156.385864,136.045868 
z"/>
<path fill="#F1EBE0" opacity="1.000000" stroke="none" 
	d="
M181.628098,406.028320 
	C180.134262,405.186493 177.976990,404.265991 178.069489,403.744690 
	C178.791016,399.678772 179.872437,395.665955 181.151321,391.737213 
	C181.225800,391.508362 184.283035,391.706573 185.428604,392.480774 
	C188.008835,394.224548 190.056152,396.818909 192.737793,398.322632 
	C193.951096,399.002991 196.159225,397.909241 197.916016,397.620361 
	C197.534485,396.002991 197.585297,394.062378 196.672836,392.841949 
	C195.203445,390.876617 193.034439,389.450348 191.274490,387.683258 
	C186.620163,383.010010 185.988739,377.511261 188.316132,371.572510 
	C190.723938,365.428558 194.340607,360.442627 201.364975,359.105927 
	C208.559875,357.736816 213.797348,362.800690 219.931503,364.903992 
	C220.365936,365.052979 220.615570,366.310699 220.600784,367.045807 
	C220.584778,367.842896 220.181183,368.639709 219.906830,369.422729 
	C218.935242,372.195465 217.946625,374.962250 216.964447,377.731293 
	C214.613754,376.178192 212.284332,374.591431 209.903061,373.086761 
	C208.787262,372.381714 207.603516,371.422485 206.392334,371.328430 
	C205.095871,371.227753 203.180710,371.622284 202.551331,372.515991 
	C201.928970,373.399750 202.131012,375.446777 202.770325,376.497314 
	C203.687042,378.003662 205.325317,379.072479 206.661545,380.321716 
	C214.482758,387.633820 215.214935,397.457062 208.590256,406.227539 
	C203.402893,413.095093 194.877930,413.992676 185.756439,408.603119 
	C184.469650,407.842804 183.254944,406.960480 181.628098,406.028320 
z"/>
<path fill="#F1EBE0" opacity="1.000000" stroke="none" 
	d="
M218.961578,117.709564 
	C217.293350,127.763596 214.585083,130.357315 202.176682,133.767670 
	C203.216583,137.168564 204.253189,140.558594 205.491074,144.606934 
	C201.382523,145.663055 197.172241,146.834442 192.899307,147.694427 
	C192.507874,147.773193 191.392532,145.931061 191.158508,144.861618 
	C188.181778,131.259262 185.333664,117.628784 182.358627,104.026054 
	C182.055710,102.641022 181.142593,101.389442 179.988007,98.981995 
	C189.497513,98.271439 197.556747,92.681503 206.963364,95.116951 
	C211.837280,96.378838 214.918884,100.102455 216.404663,104.676880 
	C217.720322,108.727615 218.148956,113.066452 218.961578,117.709564 
M199.595276,106.131927 
	C198.576477,107.077667 196.580429,108.176292 196.700516,108.943855 
	C197.381607,113.297119 198.568970,117.571159 199.584030,121.872169 
	C200.087067,122.173035 200.590118,122.473907 201.093170,122.774773 
	C202.686661,121.098129 205.037277,119.679359 205.714615,117.690681 
	C207.086533,113.662636 204.153351,108.149704 199.595276,106.131927 
z"/>
<path fill="#F1EBE1" opacity="1.000000" stroke="none" 
	d="
M253.553574,92.505493 
	C260.632050,86.285858 268.304138,89.772034 276.070404,90.256920 
	C276.351013,93.803459 276.808136,97.403503 276.735168,100.992767 
	C276.724182,101.534569 274.131531,102.634697 272.926636,102.414978 
	C270.377045,101.950050 268.006439,100.427605 265.458679,100.062080 
	C264.260345,99.890160 262.087036,101.133080 261.710938,102.208755 
	C261.372467,103.176857 262.653015,105.017227 263.653503,106.054062 
	C264.513000,106.944763 265.983765,107.247864 267.187500,107.803757 
	C276.049835,111.896461 279.264160,117.771614 277.893829,127.377228 
	C276.555145,136.761002 270.131989,141.200043 259.433655,140.135025 
	C247.943954,138.991211 248.016251,138.989365 247.726395,127.589333 
	C247.633026,123.917961 248.968094,123.546684 251.886963,125.054375 
	C254.228714,126.263931 256.601501,127.719185 259.121155,128.172348 
	C260.837524,128.481049 262.830902,127.249252 264.700439,126.706284 
	C263.685089,125.109985 262.736542,123.464279 261.614502,121.946854 
	C261.268463,121.478844 260.451538,121.355583 259.846375,121.083061 
	C247.314957,115.440048 244.616821,103.801376 253.553574,92.505493 
z"/>
<path fill="#674F29" opacity="1.000000" stroke="none" 
	d="
M159.935974,286.027069 
	C157.549652,285.489227 155.163315,284.951416 152.443130,284.233704 
	C147.471893,282.260925 142.834534,280.468018 138.014465,278.941895 
	C137.320602,278.033722 136.809448,276.858795 136.307587,275.347321 
	C140.277557,273.730835 144.238205,272.450897 148.774475,271.269348 
	C158.078445,271.570923 166.806778,271.774109 175.535126,271.977295 
	C181.472214,272.831543 187.406311,273.707489 193.348343,274.525879 
	C194.973816,274.749725 196.623077,274.800873 198.729828,275.400299 
	C204.952805,277.798645 210.679123,279.818726 216.473267,281.620789 
	C219.608139,282.595795 222.858719,283.198700 226.057098,283.969482 
	C226.057098,283.969482 225.995468,283.988434 226.094406,284.272949 
	C226.814819,284.691071 227.436310,284.824677 228.057785,284.958282 
	C228.057785,284.958282 228.004654,284.995636 228.166534,285.277313 
	C229.237457,285.695374 230.146515,285.831757 231.055573,285.968109 
	C231.055573,285.968109 230.994629,285.988434 231.042847,286.299988 
	C230.854340,287.064758 230.620850,287.912933 230.380493,287.914917 
	C213.810089,288.050018 197.235962,288.332794 180.669769,288.087555 
	C173.749847,287.985107 166.846725,286.748169 159.935974,286.027069 
M183.699051,284.993469 
	C182.778763,285.086304 181.858459,285.179138 180.938171,285.271973 
	C180.946228,285.430298 180.954285,285.588623 180.962341,285.746979 
	C184.429855,286.084717 187.897369,286.422485 192.245560,286.846039 
	C191.082245,285.496735 190.575867,284.909363 190.014908,284.258698 
	C191.462616,284.045959 192.700714,283.864014 193.938812,283.682068 
	C193.815872,283.233551 193.692917,282.785034 193.569977,282.336548 
	C190.544769,283.219147 187.519577,284.101746 183.699051,284.993469 
z"/>
<path fill="#F1EBE0" opacity="1.000000" stroke="none" 
	d="
M363.951141,282.124176 
	C363.701508,280.936096 363.549469,280.155762 363.367737,279.135498 
	C364.903687,278.476898 366.587311,277.465912 368.013123,277.749756 
	C372.403076,278.623718 376.694489,279.992706 381.412537,281.150116 
	C392.151703,283.852112 402.513306,286.533813 412.836426,289.356415 
	C413.855621,289.635071 415.518646,291.002869 415.395203,291.481476 
	C414.221039,296.033936 412.725220,300.503418 411.541443,304.293854 
	C400.144897,300.931305 389.438599,297.772400 378.372040,294.507233 
	C377.818878,296.283417 377.754272,297.776428 376.982300,298.628906 
	C376.109680,299.592621 374.653076,300.312256 373.353699,300.513550 
	C372.336212,300.671173 371.193756,299.661774 370.067780,299.543793 
	C365.930542,299.110352 364.655457,297.671539 365.720215,293.074493 
	C366.464325,289.861694 364.695312,286.066803 363.951141,282.124176 
z"/>
<path fill="#F1EBE0" opacity="1.000000" stroke="none" 
	d="
M235.443878,367.802124 
	C237.532074,367.923676 239.288834,367.699860 240.820984,368.185211 
	C241.671219,368.454529 242.817719,370.019165 242.686768,370.810760 
	C241.365799,378.796173 239.545609,386.704620 238.391968,394.710510 
	C237.282318,402.411133 236.887177,410.213043 235.908768,417.936340 
	C235.791321,418.863373 233.994171,419.584045 232.956741,420.375641 
	C232.875305,420.437836 232.647369,420.291962 232.483826,420.265015 
	C228.421463,419.595398 224.358597,418.928772 220.295822,418.261597 
	C220.936874,414.427094 221.640213,410.601807 222.207047,406.756348 
	C223.783310,396.062622 225.371429,385.369659 226.794662,374.655121 
	C227.133087,372.107300 226.844833,369.476257 226.844833,366.159485 
	C229.969589,366.768677 232.494110,367.260834 235.443878,367.802124 
z"/>
<path fill="#F1EBE0" opacity="1.000000" stroke="none" 
	d="
M303.079590,121.109634 
	C302.209747,125.425438 301.341858,129.311096 300.601990,133.220993 
	C299.875397,137.060852 299.278839,140.925354 298.559723,145.165329 
	C293.664368,144.083740 288.794464,143.007782 284.609589,142.083176 
	C288.124603,125.528999 291.509094,109.589355 294.993164,93.180901 
	C299.353333,94.108055 304.215515,95.141968 308.780701,96.112717 
	C306.817993,104.660950 304.977783,112.675529 303.079590,121.109634 
z"/>
<path fill="#EDE7DD" opacity="1.000000" stroke="none" 
	d="
M391.164368,333.943115 
	C386.923401,331.881805 383.458069,329.553436 384.452881,324.409546 
	C385.302216,320.017731 389.083923,317.482147 393.237122,318.249298 
	C398.743439,319.266418 402.660645,323.830872 401.717560,328.131042 
	C400.659912,332.953735 397.181335,334.971741 391.164368,333.943115 
z"/>
<path fill="#060202" opacity="1.000000" stroke="none" 
	d="
M161.389191,220.921509 
	C171.103149,191.510544 190.882797,171.432602 220.082336,161.114090 
	C267.443970,144.377441 320.228302,168.517899 338.960724,215.066147 
	C339.641663,216.758194 340.284363,218.465622 340.991699,220.521072 
	C328.732086,220.918320 316.424652,220.896255 304.120728,221.093674 
	C302.771271,221.115341 301.441986,222.397614 299.751312,223.457550 
	C298.279266,222.185059 297.284760,220.445465 296.020508,218.931046 
	C275.971191,194.914642 239.787735,191.395569 215.492081,211.202087 
	C211.418549,214.522964 207.832397,218.441681 204.021042,222.084152 
	C202.335068,221.723511 200.651505,221.063629 198.962753,221.050079 
	C186.595551,220.950943 174.227325,220.981339 161.389191,220.921509 
z"/>
<path fill="#D1A359" opacity="1.000000" stroke="none" 
	d="
M204.010773,222.052673 
	C207.832397,218.441681 211.418549,214.522964 215.492081,211.202087 
	C239.787735,191.395569 275.971191,194.914642 296.020508,218.931046 
	C297.284760,220.445465 298.279266,222.185059 299.746246,223.880310 
	C301.441467,226.524734 302.789703,229.108749 304.381104,232.095383 
	C304.624268,232.498016 304.973572,232.636703 304.973572,232.636703 
	C304.973572,232.636703 305.095825,232.930115 305.201813,233.282867 
	C305.526306,234.108871 305.744812,234.582108 305.963318,235.055344 
	C305.963318,235.055344 305.989166,234.995697 305.844818,235.409668 
	C306.729279,240.890106 307.758087,245.956573 308.742523,251.453552 
	C308.550262,254.326965 308.162781,256.784119 308.307190,259.209656 
	C308.564026,263.524353 306.383942,264.809143 302.474426,265.063660 
	C299.874908,265.232880 297.331451,266.263336 294.480225,267.007263 
	C290.186707,267.733215 286.175873,268.360199 281.883728,268.655396 
	C272.388702,267.579315 263.174988,266.835083 253.588531,265.958252 
	C248.134720,264.828094 243.000214,264.044128 237.983673,262.788696 
	C227.422394,260.145752 216.931778,257.221527 206.391968,254.490662 
	C203.723740,253.799316 200.979614,253.400986 198.172485,252.487427 
	C196.692001,251.444778 195.309387,250.782700 193.488342,249.910690 
	C194.696060,244.872635 195.877411,239.944489 197.058777,235.016342 
	C197.058777,235.016342 197.002014,234.999741 197.312988,234.903793 
	C197.765045,234.205841 197.906143,233.603821 198.047241,233.001816 
	C198.047226,233.001816 197.998413,232.996674 198.293762,232.816406 
	C198.750946,231.762573 198.912781,230.889023 199.074615,230.015472 
	C199.074615,230.015472 199.005341,230.005890 199.381256,229.999222 
	C199.862869,229.334854 199.968582,228.677155 200.074295,228.019455 
	C200.074295,228.019455 200.007126,228.006744 200.331238,228.080154 
	C200.787918,227.776672 200.920471,227.399765 201.053024,227.022873 
	C201.053024,227.022873 201.000870,227.000076 201.317459,226.909882 
	C202.104416,225.883224 202.574768,224.946777 203.045135,224.010330 
	C203.045135,224.010330 202.999313,223.996597 203.275635,223.859344 
	C203.723511,223.153961 203.895050,222.585831 204.066589,222.017715 
	C204.066589,222.017715 204.000519,222.021194 204.010773,222.052673 
z"/>
<path fill="#876739" opacity="1.000000" stroke="none" 
	d="
M347.832886,265.688812 
	C346.319244,267.016632 344.547607,268.008270 342.848022,269.110870 
	C330.538177,277.096954 317.159027,282.366913 302.432800,284.681091 
	C302.434723,283.926544 302.730225,283.470215 303.012848,283.006592 
	C303.000000,282.999268 303.015198,283.024597 303.324158,282.908386 
	C303.768890,282.201263 303.904633,281.610321 304.019531,281.010498 
	C303.998627,281.001587 304.031097,281.033752 304.400482,281.061066 
	C305.525055,279.058990 306.280273,277.029602 307.016113,275.000122 
	C306.996765,275.000031 307.011383,275.035309 307.348450,274.854309 
	C308.644226,270.388123 309.602875,266.102905 310.656067,261.395081 
	C314.186554,261.395081 317.968414,261.216888 321.727203,261.435577 
	C327.836273,261.790985 333.930206,262.406158 340.030548,262.911682 
	C342.556458,263.742462 345.082336,264.573212 347.832886,265.688812 
z"/>
<path fill="#1E0D09" opacity="1.000000" stroke="none" 
	d="
M339.783691,262.618896 
	C333.930206,262.406158 327.836273,261.790985 321.727203,261.435577 
	C317.968414,261.216888 314.186554,261.395081 310.656067,261.395081 
	C309.602875,266.102905 308.644226,270.388123 307.301910,274.436951 
	C307.221619,271.556091 307.524933,268.911621 307.837769,266.184296 
	C302.944916,266.455231 298.853912,266.681763 294.762909,266.908295 
	C297.331451,266.263336 299.874908,265.232880 302.474426,265.063660 
	C306.383942,264.809143 308.564026,263.524353 308.307190,259.209656 
	C308.162781,256.784119 308.550262,254.326965 309.016785,251.453201 
	C309.518158,251.019348 309.700836,251.016357 309.883514,251.013367 
	C309.883514,253.798508 309.883514,256.583649 309.883514,258.928986 
	C320.232910,260.114624 329.884888,261.220337 339.783691,262.618896 
z"/>
<path fill="#3D2115" opacity="1.000000" stroke="none" 
	d="
M309.923340,250.596619 
	C309.700836,251.016357 309.518158,251.019348 309.061188,251.022705 
	C307.758087,245.956573 306.729279,240.890106 305.812408,235.412079 
	C307.270599,240.060318 308.616882,245.120102 309.923340,250.596619 
z"/>
<path fill="#3D2115" opacity="1.000000" stroke="none" 
	d="
M305.961243,234.787338 
	C305.744812,234.582108 305.526306,234.108871 305.345276,233.351227 
	C305.574921,233.551010 305.767059,234.035172 305.961243,234.787338 
z"/>
<path fill="#3D2115" opacity="1.000000" stroke="none" 
	d="
M304.902832,232.592834 
	C304.973572,232.636703 304.624268,232.498016 304.628387,232.398346 
	C304.632507,232.298660 304.832062,232.548965 304.902832,232.592834 
z"/>
<path fill="#2C0E0C" opacity="1.000000" stroke="none" 
	d="
M196.698730,235.100220 
	C195.877411,239.944489 194.696060,244.872635 193.488342,249.910690 
	C195.309387,250.782700 196.692001,251.444778 197.767853,252.477554 
	C196.103485,252.645721 194.745911,252.443176 192.491302,252.106781 
	C193.076614,256.030273 193.543884,259.162506 194.010498,262.529846 
	C194.009277,263.077911 194.009949,263.390839 193.752762,263.907593 
	C195.369217,265.639709 197.244766,267.168030 199.080994,268.996216 
	C199.028168,269.497192 199.014679,269.698364 199.001175,269.899536 
	C196.280167,267.859772 193.641205,265.694977 190.803650,263.832825 
	C189.377731,262.897064 187.590836,262.511383 185.594482,261.836609 
	C186.954498,261.372406 188.687210,260.948517 189.369995,260.781494 
	C191.786240,251.906128 194.062454,243.545120 196.698730,235.100220 
z"/>
<path fill="#27120C" opacity="1.000000" stroke="none" 
	d="
M173.676163,262.969666 
	C167.755264,264.313965 161.348373,265.445770 155.011307,266.885101 
	C149.566849,268.121674 144.202148,269.709412 138.415833,271.102661 
	C139.270126,270.134308 140.401794,268.624725 141.768677,268.368103 
	C152.226837,266.404907 162.730774,264.685699 173.676163,262.969666 
z"/>
<path fill="#2C0E0C" opacity="1.000000" stroke="none" 
	d="
M202.679291,223.996246 
	C202.574768,224.946777 202.104416,225.883224 201.334625,226.932571 
	C201.461288,226.024353 201.887375,225.003250 202.679291,223.996246 
z"/>
<path fill="#2C0E0C" opacity="1.000000" stroke="none" 
	d="
M198.759827,230.175781 
	C198.912781,230.889023 198.750946,231.762573 198.304718,232.838379 
	C198.161880,232.139114 198.303452,231.237595 198.759827,230.175781 
z"/>
<path fill="#2C0E0C" opacity="1.000000" stroke="none" 
	d="
M199.778778,228.144135 
	C199.968582,228.677155 199.862869,229.334854 199.404434,230.025391 
	C199.195572,229.461761 199.339432,228.865295 199.778778,228.144135 
z"/>
<path fill="#2C0E0C" opacity="1.000000" stroke="none" 
	d="
M203.762146,222.126862 
	C203.895050,222.585831 203.723511,223.153961 203.283325,223.881989 
	C203.162338,223.439926 203.310028,222.837967 203.762146,222.126862 
z"/>
<path fill="#2C0E0C" opacity="1.000000" stroke="none" 
	d="
M197.721191,233.080429 
	C197.906143,233.603821 197.765045,234.205841 197.331055,234.927216 
	C197.157150,234.417389 197.276154,233.788223 197.721191,233.080429 
z"/>
<path fill="#27120C" opacity="1.000000" stroke="none" 
	d="
M136.303131,272.504547 
	C135.861298,272.316040 135.772125,272.110779 135.626740,271.575989 
	C136.119598,271.124756 136.668655,271.003082 137.632935,270.965546 
	C137.584030,271.529053 137.119919,272.008423 136.303131,272.504547 
z"/>
<path fill="#2C0E0C" opacity="1.000000" stroke="none" 
	d="
M200.762604,227.034210 
	C200.920471,227.399765 200.787918,227.776672 200.346191,228.110901 
	C200.182083,227.727341 200.327118,227.386459 200.762604,227.034210 
z"/>
<path fill="#070202" opacity="1.000000" stroke="none" 
	d="
M160.068298,286.361542 
	C166.846725,286.748169 173.749847,287.985107 180.669769,288.087555 
	C197.235962,288.332794 213.810089,288.050018 230.380493,287.914917 
	C230.620850,287.912933 230.854340,287.064758 231.047729,286.268219 
	C245.201004,290.338623 259.307251,295.074982 273.617920,299.081268 
	C290.078308,303.689331 306.782806,307.170135 324.081940,306.049988 
	C324.832733,306.001373 325.615631,306.448975 326.787781,306.827576 
	C319.756317,314.472168 313.270477,323.336212 304.728088,329.208740 
	C255.943649,362.746246 190.348892,344.614227 164.772018,291.223633 
	C163.899551,289.402374 161.753220,288.191406 160.068298,286.361542 
z"/>
<path fill="#8C0219" opacity="1.000000" stroke="none" 
	d="
M199.120316,268.696350 
	C197.244766,267.168030 195.369217,265.639709 194.109467,264.055359 
	C209.294617,269.254456 224.059174,273.780060 239.390274,276.209625 
	C238.837677,275.394836 238.112747,275.199982 237.398010,274.973114 
	C228.452515,272.133698 218.967896,271.552368 210.653046,265.893494 
	C206.303818,262.933563 199.633301,263.384399 194.011169,262.294800 
	C193.543884,259.162506 193.076614,256.030273 192.491302,252.106781 
	C194.745911,252.443176 196.103485,252.645721 197.865723,252.858154 
	C200.979614,253.400986 203.723740,253.799316 206.391968,254.490662 
	C216.931778,257.221527 227.422394,260.145752 237.983673,262.788696 
	C243.000214,264.044128 248.134720,264.828094 253.383331,266.207153 
	C252.630219,266.811584 251.709549,267.034485 250.585876,267.306549 
	C260.888855,275.642639 271.591064,271.034058 282.165009,268.987213 
	C286.175873,268.360199 290.186707,267.733215 294.480225,267.007263 
	C298.853912,266.681763 302.944916,266.455231 307.837769,266.184296 
	C307.524933,268.911621 307.221619,271.556091 306.964844,274.617950 
	C307.011383,275.035309 306.996765,275.000031 306.701477,275.140350 
	C305.614502,277.198364 304.822784,279.116058 304.031067,281.033752 
	C304.031097,281.033752 303.998627,281.001587 303.714417,281.127258 
	C303.291870,281.843506 303.153534,282.434052 303.015198,283.024597 
	C303.015198,283.024597 303.000000,282.999268 302.617645,282.922363 
	C292.082672,286.422882 281.679108,286.654419 271.129730,285.286011 
	C270.132629,285.156647 269.045563,285.721008 268.000244,285.963318 
	C257.559845,284.086456 247.111084,282.254395 236.683914,280.306732 
	C233.363632,279.686523 230.100754,278.759125 226.325897,277.519897 
	C216.933578,274.277161 208.026947,271.486755 199.120316,268.696350 
z"/>
<path fill="#230E0A" opacity="1.000000" stroke="none" 
	d="
M268.402649,286.076477 
	C269.045563,285.721008 270.132629,285.156647 271.129730,285.286011 
	C281.679108,286.654419 292.082672,286.422882 302.630493,282.929688 
	C302.730225,283.470215 302.434723,283.926544 302.017578,284.635437 
	C290.982269,288.286804 279.908936,287.626190 268.402649,286.076477 
z"/>
<path fill="#20160C" opacity="1.000000" stroke="none" 
	d="
M225.848785,283.677734 
	C222.858719,283.198700 219.608139,282.595795 216.473267,281.620789 
	C210.679123,279.818726 204.952805,277.798645 199.149155,275.512878 
	C207.946869,277.899597 216.793655,280.642822 225.848785,283.677734 
z"/>
<path fill="#261B0F" opacity="1.000000" stroke="none" 
	d="
M175.272507,271.646118 
	C166.806778,271.774109 158.078445,271.570923 149.073517,271.110168 
	C157.580597,268.398438 166.315704,268.696442 175.272507,271.646118 
z"/>
<path fill="#25100B" opacity="1.000000" stroke="none" 
	d="
M199.080994,268.996216 
	C208.026947,271.486755 216.933578,274.277161 225.924591,277.407867 
	C217.250107,275.211548 208.491257,272.674927 199.366791,270.018921 
	C199.014679,269.698364 199.028168,269.497192 199.080994,268.996216 
z"/>
<path fill="#20160C" opacity="1.000000" stroke="none" 
	d="
M230.874130,285.670044 
	C230.146515,285.831757 229.237457,285.695374 228.167313,285.244873 
	C228.901703,285.077789 229.797195,285.224854 230.874130,285.670044 
z"/>
<path fill="#20160C" opacity="1.000000" stroke="none" 
	d="
M227.979797,284.637695 
	C227.436310,284.824677 226.814819,284.691071 226.100006,284.241211 
	C226.638367,284.055634 227.270096,284.186371 227.979797,284.637695 
z"/>
<path fill="#120E0E" opacity="1.000000" stroke="none" 
	d="
M168.003326,352.476257 
	C169.903214,352.896423 172.441986,353.238861 173.004181,354.478088 
	C173.701904,356.016022 173.426880,358.867310 172.359299,360.106812 
	C171.108231,361.559357 168.601654,362.291809 166.543030,362.542297 
	C165.435730,362.677032 164.126114,361.148834 162.355392,360.018280 
	C164.313309,357.404572 166.039291,355.100464 168.003326,352.476257 
z"/>
<path fill="#110D0C" opacity="1.000000" stroke="none" 
	d="
M262.436188,399.411865 
	C261.977234,394.187286 261.279755,389.373688 261.429596,384.586609 
	C261.487549,382.735809 263.466339,380.945129 264.570038,379.127075 
	C265.882660,380.627838 268.072601,381.981323 268.353699,383.655304 
	C269.477783,390.348999 270.268402,397.130402 270.577209,403.906982 
	C270.654602,405.604889 268.478302,407.405518 267.337799,409.158966 
	C266.036011,407.682953 264.437897,406.367432 263.524750,404.681000 
	C262.773468,403.293488 262.834839,401.465942 262.436188,399.411865 
z"/>
<path fill="#110C0C" opacity="1.000000" stroke="none" 
	d="
M359.912750,349.109741 
	C356.202576,345.766602 352.612274,342.794067 349.445374,339.423706 
	C348.505890,338.423859 348.757721,336.304565 348.463684,334.698242 
	C349.967041,334.904999 351.887512,334.590454 352.904846,335.404602 
	C358.718048,340.056396 364.411652,344.872681 369.899994,349.901459 
	C370.892212,350.810547 370.742004,352.966553 371.119202,354.546906 
	C369.603394,354.385529 367.855835,354.647247 366.621796,353.971375 
	C364.321686,352.711578 362.320282,350.906403 359.912750,349.109741 
z"/>
<path fill="#0F0B0B" opacity="1.000000" stroke="none" 
	d="
M156.228043,135.699326 
	C154.901978,132.257538 153.457840,129.228745 152.689316,126.037247 
	C152.338547,124.580597 153.320602,122.803009 153.698151,121.170990 
	C155.348236,121.907089 157.845642,122.198868 158.504272,123.454865 
	C161.644211,129.442795 164.462845,135.621750 166.963669,141.904724 
	C167.514175,143.287796 166.305954,145.370895 165.907623,147.131638 
	C164.195587,146.220520 161.955460,145.711502 160.887970,144.309586 
	C159.009506,141.842651 157.847748,138.830002 156.228043,135.699326 
z"/>
<path fill="#130F0F" opacity="1.000000" stroke="none" 
	d="
M199.976181,106.134224 
	C204.153351,108.149704 207.086533,113.662636 205.714615,117.690681 
	C205.037277,119.679359 202.686661,121.098129 201.093170,122.774773 
	C200.590118,122.473907 200.087067,122.173035 199.584030,121.872169 
	C198.568970,117.571159 197.381607,113.297119 196.700516,108.943855 
	C196.580429,108.176292 198.576477,107.077667 199.976181,106.134224 
z"/>
<path fill="#382A16" opacity="1.000000" stroke="none" 
	d="
M184.096710,284.988892 
	C187.519577,284.101746 190.544769,283.219147 193.569977,282.336548 
	C193.692917,282.785034 193.815872,283.233551 193.938812,283.682068 
	C192.700714,283.864014 191.462616,284.045959 190.014908,284.258698 
	C190.575867,284.909363 191.082245,285.496735 192.245560,286.846039 
	C187.897369,286.422485 184.429855,286.084717 180.962341,285.746979 
	C180.954285,285.588623 180.946228,285.430298 180.938171,285.271973 
	C181.858459,285.179138 182.778763,285.086304 184.096710,284.988892 
z"/>
<path fill="#31060A" opacity="1.000000" stroke="none" 
	d="
M281.883728,268.655396 
	C271.591064,271.034058 260.888855,275.642639 250.585876,267.306549 
	C251.709549,267.034485 252.630219,266.811584 253.756088,266.339783 
	C263.174988,266.835083 272.388702,267.579315 281.883728,268.655396 
z"/>
<path fill="#230E0A" opacity="1.000000" stroke="none" 
	d="
M304.400452,281.061066 
	C304.822784,279.116058 305.614502,277.198364 306.720856,275.140442 
	C306.280273,277.029602 305.525055,279.058990 304.400452,281.061066 
z"/>
<path fill="#230E0A" opacity="1.000000" stroke="none" 
	d="
M303.324158,282.908386 
	C303.153534,282.434052 303.291870,281.843506 303.735291,281.136169 
	C303.904633,281.610321 303.768890,282.201263 303.324158,282.908386 
z"/>
<path fill="#250006" opacity="1.000000" stroke="none" 
	d="
M194.010498,262.529877 
	C199.633301,263.384399 206.303818,262.933563 210.653046,265.893494 
	C218.967896,271.552368 228.452515,272.133698 237.398010,274.973114 
	C238.112747,275.199982 238.837677,275.394836 239.390274,276.209625 
	C224.059174,273.780060 209.294617,269.254456 194.368530,263.851562 
	C194.009949,263.390839 194.009277,263.077911 194.010498,262.529877 
z"/>
</svg>